<svg width="48" height="48" viewBox="0 0 48 48" fill="none" xmlns="http://www.w3.org/2000/svg">
<path d="M21.8623 7.42247L6.9491 13.5933C6.11978 13.9365 6.12838 15.1147 6.96289 15.4454L21.9383 21.3841C23.254 21.9059 24.7194 21.9059 26.0351 21.3841L41.0107 15.4452C41.845 15.1147 41.8541 13.9367 41.0243 13.5935L26.1115 7.42224C24.751 6.85925 23.2226 6.85925 21.8621 7.42224" fill="#FCB400"/>
<path d="M25.3145 24.6265V39.4621C25.3145 40.1675 26.026 40.6509 26.6819 40.3909L43.369 33.9138C43.5551 33.84 43.7148 33.712 43.8273 33.5464C43.9398 33.3808 43.9999 33.1852 43.9998 32.985V18.1495C43.9998 17.4439 43.2883 16.9607 42.6324 17.2207L25.9453 23.6979C25.7592 23.7717 25.5996 23.8997 25.4871 24.0653C25.3746 24.2309 25.3145 24.4265 25.3145 24.6267" fill="#18BFFF"/>
<path d="M21.4179 25.3922L16.4655 27.7834L15.9627 28.0265L5.5085 33.0356C4.84605 33.3553 4 32.8724 4 32.1362V18.2119C4 17.9456 4.13656 17.7156 4.3197 17.5427C4.39483 17.4679 4.48007 17.4039 4.57292 17.3528C4.82253 17.2029 5.17886 17.1628 5.48183 17.2827L21.3347 23.564C22.1405 23.8837 22.2038 25.0129 21.4179 25.3925" fill="#F82B60"/>
<path d="M21.4185 25.3922L16.4661 27.7834L4.32031 17.5425C4.39546 17.4677 4.48069 17.4039 4.57354 17.3528C4.82315 17.2029 5.17947 17.1628 5.48244 17.2827L21.3353 23.564C22.1411 23.8837 22.2044 25.0129 21.4185 25.3925" fill="black" fill-opacity="0.25"/>
</svg>
