<svg width="16" height="16" viewBox="0 0 16 16" fill="none" xmlns="http://www.w3.org/2000/svg">
<path d="M13.3327 6.66667C13.3327 9.99533 9.64002 13.462 8.40002 14.5327C8.2845 14.6195 8.14388 14.6665 7.99935 14.6665C7.85482 14.6665 7.7142 14.6195 7.59868 14.5327C6.35868 13.462 2.66602 9.99533 2.66602 6.66667C2.66602 5.25218 3.22792 3.89563 4.22811 2.89543C5.22831 1.89524 6.58486 1.33333 7.99935 1.33333C9.41384 1.33333 10.7704 1.89524 11.7706 2.89543C12.7708 3.89563 13.3327 5.25218 13.3327 6.66667Z" stroke="#D6D6DA" stroke-linecap="round" stroke-linejoin="round"/>
<path d="M7.99935 8.66667C9.10392 8.66667 9.99935 7.77124 9.99935 6.66667C9.99935 5.5621 9.10392 4.66667 7.99935 4.66667C6.89478 4.66667 5.99935 5.5621 5.99935 6.66667C5.99935 7.77124 6.89478 8.66667 7.99935 8.66667Z" stroke="#D6D6DA" stroke-linecap="round" stroke-linejoin="round"/>
</svg>
