<svg width="48" height="48" viewBox="0 0 48 48" fill="none" xmlns="http://www.w3.org/2000/svg">
<path d="M0 24C0 10.7452 10.7452 0 24 0C37.2548 0 48 10.7452 48 24C48 37.2548 37.2548 48 24 48C10.7452 48 0 37.2548 0 24Z" fill="white"/>
<path d="M12.802 29.0953C12.802 31.3284 10.9778 33.1526 8.74476 33.1526C6.51169 33.1526 4.6875 31.3284 4.6875 29.0953C4.6875 26.8623 6.51169 25.0381 8.74476 25.0381H12.802V29.0953Z" fill="#E01E5A"/>
<path d="M14.8477 29.0953C14.8477 26.8623 16.6718 25.0381 18.9049 25.0381C21.138 25.0381 22.9622 26.8623 22.9622 29.0953V39.2542C22.9622 41.4873 21.138 43.3115 18.9049 43.3115C16.6718 43.3115 14.8477 41.4873 14.8477 39.2542V29.0953Z" fill="#E01E5A"/>
<path d="M18.9049 12.8035C16.6718 12.8035 14.8477 10.9793 14.8477 8.74622C14.8477 6.51316 16.6718 4.68896 18.9049 4.68896C21.138 4.68896 22.9622 6.51316 22.9622 8.74622V12.8035H18.9049Z" fill="#36C5F0"/>
<path d="M18.9036 14.8477C21.1367 14.8477 22.9609 16.6718 22.9609 18.9049C22.9609 21.138 21.1367 22.9622 18.9036 22.9622H8.74476C6.51169 22.9622 4.6875 21.138 4.6875 18.9049C4.6875 16.6718 6.51169 14.8477 8.74476 14.8477H18.9036Z" fill="#36C5F0"/>
<path d="M35.1953 18.9049C35.1953 16.6718 37.0195 14.8477 39.2526 14.8477C41.4856 14.8477 43.3098 16.6718 43.3098 18.9049C43.3098 21.138 41.4856 22.9622 39.2526 22.9622H35.1953V18.9049Z" fill="#2EB67D"/>
<path d="M33.1516 18.9051C33.1516 21.1382 31.3274 22.9624 29.0944 22.9624C26.8613 22.9624 25.0371 21.1382 25.0371 18.9051V8.74622C25.0371 6.51316 26.8613 4.68896 29.0944 4.68896C31.3274 4.68896 33.1516 6.51316 33.1516 8.74622V18.9051Z" fill="#2EB67D"/>
<path d="M29.0944 35.1973C31.3274 35.1973 33.1516 37.0215 33.1516 39.2545C33.1516 41.4876 31.3274 43.3118 29.0944 43.3118C26.8613 43.3118 25.0371 41.4876 25.0371 39.2545V35.1973H29.0944Z" fill="#ECB22E"/>
<path d="M29.0944 33.1526C26.8613 33.1526 25.0371 31.3284 25.0371 29.0953C25.0371 26.8623 26.8613 25.0381 29.0944 25.0381H39.2532C41.4863 25.0381 43.3105 26.8623 43.3105 29.0953C43.3105 31.3284 41.4863 33.1526 39.2532 33.1526H29.0944Z" fill="#ECB22E"/>
</svg>
