<svg width="48" height="48" viewBox="0 0 48 48" fill="none" xmlns="http://www.w3.org/2000/svg">
<path d="M3.54297 44.0862L6.39713 33.665C4.63678 30.6153 3.71064 27.1552 3.71177 23.6108C3.71628 12.5219 12.7404 3.50049 23.8296 3.50049C29.2109 3.50311 34.2617 5.59731 38.0605 9.39872C41.8581 13.2001 43.9493 18.2529 43.9474 23.627C43.9425 34.7151 34.9169 43.738 23.8296 43.738C23.8288 43.738 23.8304 43.738 23.8296 43.738H23.8209C20.4543 43.7367 17.1461 42.8921 14.2076 41.2897L3.54297 44.0862Z" fill="white"/>
<path d="M23.8369 6.89746C14.6135 6.89746 7.11277 14.3955 7.10938 23.6117C7.10801 26.7699 7.99186 29.846 9.66555 32.5077L10.0634 33.14L8.37383 39.3079L14.7024 37.6486L15.3135 38.0107C17.8802 39.5341 20.8229 40.3396 23.824 40.3411H23.8304C33.0466 40.3411 40.5474 32.8423 40.5511 23.6253C40.5528 19.1588 38.8153 14.9588 35.6582 11.7994C32.5011 8.64006 28.3033 6.89934 23.8369 6.89746Z" fill="url(#paint0_linear_6060_1705)"/>
<path fill-rule="evenodd" clip-rule="evenodd" d="M18.8018 15.2034C18.425 14.3666 18.0286 14.3496 17.6707 14.3349C17.3776 14.3225 17.0422 14.3233 16.7073 14.3233C16.3719 14.3233 15.8275 14.4491 15.367 14.9521C14.9062 15.4551 13.6074 16.671 13.6074 19.1442C13.6074 21.6175 15.4088 24.0071 15.6598 24.3428C15.9111 24.6781 19.1372 29.9155 24.2468 31.9302C28.4928 33.6046 29.3568 33.2715 30.2787 33.1879C31.2004 33.1042 33.2527 31.972 33.6713 30.7983C34.0903 29.6246 34.0903 28.619 33.9649 28.4087C33.839 28.1988 33.5041 28.0734 33.001 27.822C32.4984 27.5707 30.0271 26.3545 29.5662 26.1868C29.1054 26.0191 28.7705 25.9355 28.4351 26.4385C28.1002 26.9415 27.1375 28.0734 26.844 28.4087C26.5508 28.7444 26.2577 28.7862 25.7547 28.5349C25.252 28.2829 23.633 27.7527 21.7125 26.0402C20.2182 24.7079 19.2095 23.0625 18.916 22.5595C18.6228 22.0564 18.8847 21.7844 19.1368 21.5338C19.3625 21.3085 19.6394 20.9468 19.8911 20.6533C20.1417 20.3598 20.2257 20.1503 20.393 19.8153C20.5607 19.4796 20.477 19.1861 20.3512 18.9348C20.2257 18.6834 19.2487 16.1974 18.8018 15.2034Z" fill="white"/>
<defs>
<linearGradient id="paint0_linear_6060_1705" x1="23.4898" y1="8.90444" x2="23.6594" y2="37.4839" gradientUnits="userSpaceOnUse">
<stop stop-color="#57D163"/>
<stop offset="1" stop-color="#23B33A"/>
</linearGradient>
</defs>
</svg>
