<svg width="49" height="48" viewBox="0 0 49 48" fill="none" xmlns="http://www.w3.org/2000/svg">
<path d="M24.2578 7.01367C24.2578 7.01367 9.08529 7.01369 5.27719 8.0032C3.2382 8.57292 1.55925 10.2519 0.989531 12.3209C2.25449e-05 16.129 0 24.0152 0 24.0152C0 24.0152 2.25449e-05 31.9314 0.989531 35.6796C1.55925 37.7486 3.20821 39.3975 5.27719 39.9673C9.11527 40.9868 24.2578 40.9868 24.2578 40.9868C24.2578 40.9868 39.4604 40.9868 43.2684 39.9973C45.3374 39.4276 46.9864 37.8085 47.5261 35.7096C48.5456 31.9315 48.5456 24.0452 48.5456 24.0452C48.5456 24.0452 48.5756 16.129 47.5261 12.3209C46.9864 10.2519 45.3374 8.60294 43.2684 8.0632C39.4604 7.01372 24.2578 7.01367 24.2578 7.01367ZM19.4302 16.729L32.0541 24.0152L19.4302 31.2715V16.729Z" fill="#FF0000"/>
</svg>
