<svg width="48" height="48" viewBox="0 0 48 48" fill="none" xmlns="http://www.w3.org/2000/svg">
<path d="M0 24C0 10.7452 10.7452 0 24 0C37.2548 0 48 10.7452 48 24C48 37.2548 37.2548 48 24 48C10.7452 48 0 37.2548 0 24Z" fill="white"/>
<path d="M22.7803 35.8516H8.11719L22.7803 17.6484V35.8516ZM32.5273 28.3125C36.5764 28.3126 39.8584 31.6881 39.8584 35.8516H25.1953C25.1953 31.6881 28.4781 28.3125 32.5273 28.3125ZM25.1953 29.3174V11.1143H39.8604L25.1953 29.3174ZM22.7803 11.1143C22.7803 15.2777 19.4983 18.6532 15.4492 18.6533C11.3999 18.6533 8.11719 15.2778 8.11719 11.1143H22.7803Z" fill="#03363D"/>
</svg>
